<?xml version="1.0" encoding="utf-8"?>
<!-- Generator: Adobe Illustrator 22.1.0, SVG Export Plug-In . SVG Version: 6.00 Build 0)  -->
<svg version="1.1" id="Capa_1" xmlns="http://www.w3.org/2000/svg" xmlns:xlink="http://www.w3.org/1999/xlink" x="0px" y="0px"
	 viewBox="0 0 461.6 461.6" style="enable-background:new 0 0 461.6 461.6;" xml:space="preserve">
<style type="text/css">
	.st0{fill:#FFFFFF;}
</style>
<path class="st0" d="M450.1,230.8c0-121.1-98.2-219.3-219.3-219.3S11.5,109.7,11.5,230.8s98.2,219.3,219.3,219.3
	c1.4,0,2.9,0,4.3-0.1c0,0,0,0,0,0l0,0C354.2,447.7,450.1,350.4,450.1,230.8z M310.7,419.9c-8,3.4-16.1,6.2-24.4,8.5l-1-60.4
	c0-18.5-4.9-32-14.8-40.5c10.8-1.1,20.6-2.9,29.3-5.1c8.7-2.3,17.6-6,26.8-11.1c9.2-5.1,16.9-11.5,23.1-19
	c6.2-7.5,11.2-17.5,15.1-30c3.9-12.5,5.9-26.8,5.9-43c0-23-7.5-42.6-22.6-58.8c7-17.3,6.3-36.7-2.3-58.2c-5.3-1.7-13-0.7-23.1,3.1
	c-10.1,3.8-18.8,8-26.3,12.6l-10.8,6.8c-17.7-4.9-36-7.4-54.8-7.4c-18.8,0-37.1,2.5-54.8,7.4c-3-2.1-7.1-4.7-12.1-7.7
	c-5-3-13-6.7-23.8-11c-10.8-4.3-19-5.6-24.6-3.9c-8.4,21.5-9,40.9-2,58.2c-15,16.2-22.6,35.8-22.6,58.8c0,16.2,2,30.5,5.9,42.8
	c3.9,12.4,8.9,22.4,15,30c6.1,7.6,13.8,14,23,19.1c9.2,5.1,18.2,8.9,26.8,11.1c8.7,2.3,18.4,4,29.3,5.1c-7.6,6.9-12.3,16.7-14,29.4
	c-4,1.9-8.3,3.3-12.8,4.3c-4.6,0.9-10,1.4-16.3,1.4c-6.3,0-12.5-2-18.7-6.1c-6.2-4.1-11.5-10-15.8-17.8c-3.6-6.1-8.2-11-13.8-14.8
	c-5.6-3.8-10.3-6.1-14.1-6.9l-5.7-0.9c-4,0-6.8,0.4-8.3,1.3c-1.5,0.9-2,2-1.4,3.3c0.6,1.3,1.4,2.7,2.6,4c1.1,1.3,2.4,2.5,3.7,3.4
	l2,1.4c4.2,1.9,8.3,5.5,12.4,10.8c4.1,5.3,7.1,10.2,9,14.6l2.9,6.6c2.5,7.2,6.7,13.1,12.6,17.6c5.9,4.5,12.3,7.3,19.1,8.6
	c6.9,1.2,13.5,1.9,19.8,2c6.4,0.1,11.7-0.2,15.8-1l6.6-1.1c0,5.7-0.6,27.2-0.8,41c-8.3-2.3-16.5-5.2-24.6-8.6
	c-24.4-10.3-46.4-25.1-65.3-44s-33.7-40.8-44-65.3c-10.7-25.3-16.1-52.2-16.1-79.9c0-27.7,5.4-54.6,16.1-79.9
	c10.3-24.4,25.1-46.4,44-65.3c18.9-18.9,40.8-33.7,65.3-44c25.3-10.7,52.2-16.1,79.9-16.1s54.6,5.4,79.9,16.1
	c24.4,10.3,46.4,25.1,65.3,44c18.9,18.9,33.7,40.8,44,65.3c10.7,25.3,16.1,52.2,16.1,79.9c0,27.7-5.4,54.6-16.1,79.9
	c-10.3,24.4-25.1,46.4-44,65.3C357.1,394.8,335.1,409.6,310.7,419.9z"/>
</svg>
